<svg width="1920" height="1080" viewBox="0 0 1920 1080" xmlns="http://www.w3.org/2000/svg"><rect width="1920" height="1080" fill="#2a4d8f"/><path d="M 0,1080 C 0,1080 0,90 0,90 C 57.78598429776096,67.66635385550768 115.57196859552192,45.33270771101536 188,57 C 260.4280314044781,68.66729228898464 347.49810991567324,114.33552301144624 418,121 C 488.50189008432676,127.66447698855376 542.4355917417853,95.32520024319966 605,80 C 667.5644082582147,64.67479975680034 738.7595231171853,66.3636760157551 813,74 C 887.2404768828147,81.6363239842449 964.5263157894738,95.22009569377991 1041,104 C 1117.4736842105262,112.77990430622009 1193.1352137249198,116.75594120912525 1261,104 C 1328.8647862750802,91.24405879087475 1388.9328293108463,61.75613946971901 1453,57 C 1517.0671706891537,52.24386053028099 1585.133469031695,72.21950091199872 1676,90 C 1766.866530968305,107.78049908800128 1880.533294562373,123.36585688228608 1925,123 C 1969.466705437627,122.63414311771392 1944.7333527188134,106.31707155885695 1920,90 C 1920,90 1920,1080 1920,1080 Z" fill="#ffff64" opacity="0.049999999999999996"/><path d="M 0,1080 C 0,1080 0,180 0,180 C 65.48170715588569,158.73738401755267 130.96341431177137,137.47476803510534 211,149 C 291.0365856882286,160.52523196489466 385.6280499088001,204.8383118771313 457,210 C 528.3719500911999,215.1616881228687 576.524386053028,181.17198445636947 650,165 C 723.475613946972,148.82801554363053 822.2744058790876,150.47375029739092 883,156 C 943.7255941209124,161.52624970260908 966.377990430622,170.93301435406698 1030,171 C 1093.622009569378,171.06698564593302 1198.2136323984244,161.79419228634114 1290,164 C 1381.7863676015756,166.20580771365886 1460.7674799756803,179.89021650056836 1527,176 C 1593.2325200243197,172.10978349943164 1646.716447698855,150.64494171138546 1723,150 C 1799.283552301145,149.35505828861454 1898.3667292288987,169.53001665388987 1935,178 C 1971.6332707711013,186.46998334611013 1945.8166353855506,183.23499167305505 1920,180 C 1920,180 1920,1080 1920,1080 Z" fill="#ffff64" opacity="0.09999999999999999"/><path d="M 0,1080 C 0,1080 0,270 0,270 C 93.5854370985223,280.9004335298316 187.1708741970446,291.80086705966323 248,285 C 308.8291258029554,278.19913294033677 336.90194031034395,253.69696529117869 404,243 C 471.09805968965605,232.30303470882131 577.2213645615798,235.41127177562188 647,242 C 716.7786354384202,248.58872822437812 750.2126014433372,258.6579476063338 829,273 C 907.7873985566628,287.3420523936662 1031.9282296650717,305.95693779904303 1100,300 C 1168.0717703349283,294.04306220095697 1180.0744798963758,263.514301197494 1243,258 C 1305.9255201036242,252.485698802506 1419.7738507494253,271.985857410981 1505,279 C 1590.2261492505747,286.014142589019 1646.8301171059236,280.542269158582 1724,282 C 1801.1698828940764,283.457730841418 1898.9056808268792,291.8450659546908 1935,291 C 1971.0943191731208,290.1549340453092 1945.5471595865604,280.07746702265456 1920,270 C 1920,270 1920,1080 1920,1080 Z" fill="#ffff64" opacity="0.15"/><path d="M 0,1080 C 0,1080 0,360 0,360 C 96.74926643580324,364.8248962436226 193.49853287160647,369.64979248724524 253,370 C 312.50146712839353,370.35020751275476 334.7551349493775,366.2257262946417 393,363 C 451.2448650506225,359.7742737053583 545.4809273308837,357.44730233418807 627,355 C 708.5190726691163,352.55269766581193 777.3211557270878,349.98506436860606 846,349 C 914.6788442729122,348.01493563139394 983.2344497607655,348.61244019138763 1047,343 C 1110.7655502392345,337.38755980861237 1169.7410452298502,325.56517486584363 1247,333 C 1324.2589547701498,340.43482513415637 1419.801369319834,367.1268603452378 1489,378 C 1558.198630680166,388.8731396547622 1601.0534774908137,383.9273837532052 1672,383 C 1742.9465225091863,382.0726162467948 1841.9847207169103,385.16360464194133 1888,382 C 1934.0152792830897,378.83639535805867 1927.0076396415448,369.41819767902933 1920,360 C 1920,360 1920,1080 1920,1080 Z" fill="#ffff64" opacity="0.19999999999999998"/><path d="M 0,1080 C 0,1080 0,450 0,450 C 56.85126490258796,453.285825689286 113.70252980517591,456.571651378572 187,461 C 260.2974701948241,465.428348621428 350.04114568188425,470.99922017499796 429,459 C 507.95885431811575,447.00077982500204 576.1328874672871,417.43146792143597 638,417 C 699.8671125327129,416.56853207856403 755.4273044489676,445.2749081392583 838,452 C 920.5726955510324,458.7250918607417 1030.1578947368423,443.4688995215311 1096,436 C 1161.8421052631577,428.5311004784689 1183.9411166036637,428.8494937746173 1249,441 C 1314.0588833963363,453.1505062253827 1422.0776388485026,477.13312537999957 1496,481 C 1569.9223611514974,484.86687462000043 1609.7483280023264,468.61800470538475 1689,465 C 1768.2516719976736,461.38199529461525 1886.9290491421925,470.39485579846155 1932,470 C 1977.0709508578075,469.60514420153845 1948.5354754289037,459.8025721007692 1920,450 C 1920,450 1920,1080 1920,1080 Z" fill="#ffff64" opacity="0.24999999999999997"/><path d="M 0,1080 C 0,1080 0,540 0,540 C 60.808480266462254,520.9783235084194 121.61696053292451,501.95664701683893 191,509 C 260.3830394670755,516.0433529831611 338.34063813476433,549.1517354410638 410,557 C 481.65936186523567,564.8482645589362 547.0204869280183,547.4364112189061 626,547 C 704.9795130719817,546.5635887810939 797.5774141531629,563.1026196833118 883,568 C 968.4225858468371,572.8973803166882 1046.6698564593303,566.1531100478468 1102,565 C 1157.3301435406697,563.8468899521532 1189.7431600095163,568.2849401253006 1245,571 C 1300.2568399904837,573.7150598746994 1378.357503502604,574.7071294509503 1454,562 C 1529.642496497396,549.2928705490497 1602.8268259800682,522.886542070898 1693,527 C 1783.1731740199318,531.113457929102 1890.3351925771235,565.7467022654578 1931,573 C 1971.6648074228765,580.2532977345422 1945.8324037114382,560.1266488672711 1920,540 C 1920,540 1920,1080 1920,1080 Z" fill="#ffff64" opacity="0.3"/><path d="M 0,1080 C 0,1080 0,630 0,630 C 75.75020486928017,613.9531576303893 151.50040973856034,597.9063152607788 227,597 C 302.49959026143966,596.0936847392212 377.74856591503874,610.3278965872743 456,624 C 534.2514340849613,637.6721034127257 615.5053266012848,650.782098390124 675,654 C 734.4946733987152,657.217901609876 772.2301276798222,650.5437098522297 833,642 C 893.7698723201778,633.4562901477703 977.5741626794259,623.043062200957 1052,615 C 1126.4258373205741,606.956937799043 1191.4732216024743,601.2840413439424 1257,604 C 1322.5267783975257,606.7159586560576 1388.532950910677,617.8207724232732 1464,628 C 1539.467049089323,638.1792275767268 1624.394974754818,647.4328689629649 1706,647 C 1787.605025245182,646.5671310370351 1865.887150070052,636.4477517248672 1901,632 C 1936.112849929948,627.5522482751328 1928.056424964974,628.7761241375664 1920,630 C 1920,630 1920,1080 1920,1080 Z" fill="#ffff64" opacity="0.35"/><path d="M 0,1080 C 0,1080 0,720 0,720 C 60.69297364455839,703.5723518993365 121.38594728911679,687.1447037986729 185,696 C 248.61405271088321,704.8552962013271 315.14918448809124,738.9935367046446 404,739 C 492.85081551190876,739.0064632953554 604.0173147585185,704.8811493827486 677,699 C 749.9826852414815,693.1188506172514 784.7815564778344,715.4818657643607 842,729 C 899.2184435221656,742.5181342356393 978.8564593301435,747.1913875598086 1055,739 C 1131.1435406698565,730.8086124401914 1203.7926062015915,709.7525839964048 1277,704 C 1350.2073937984085,698.2474160035952 1423.9731158634909,707.7982764545718 1502,707 C 1580.0268841365091,706.2017235454282 1662.314930344445,695.0543101853076 1731,691 C 1799.685069655555,686.9456898146924 1854.76716275873,689.9844828041979 1884,696 C 1913.23283724127,702.0155171958021 1916.6164186206352,711.0077585979011 1920,720 C 1920,720 1920,1080 1920,1080 Z" fill="#ffff64" opacity="0.39999999999999997"/><path d="M 0,1080 C 0,1080 0,810 0,810 C 54.9855137592852,827.1866425229322 109.9710275185704,844.3732850458643 187,843 C 264.0289724814296,841.6267149541357 363.10140368500356,821.693502339475 438,814 C 512.8985963149964,806.306497660525 563.6233577414154,810.8527055962358 632,809 C 700.3766422585846,807.1472944037642 786.4051653493352,798.8956752755822 869,800 C 951.5948346506648,801.1043247244178 1030.755980861244,811.5645933014354 1104,809 C 1177.244019138756,806.4354066985646 1244.5709112056886,790.8459515186762 1317,794 C 1389.4290887943114,797.1540484813238 1466.960374316001,819.0516006238599 1520,820 C 1573.039625683999,820.9483993761401 1601.5875915303072,800.9476459858838 1671,800 C 1740.4124084696928,799.0523540141162 1850.6892595627694,817.1578154326046 1899,822 C 1947.3107404372306,826.8421845673954 1933.6553702186152,818.4210922836977 1920,810 C 1920,810 1920,1080 1920,1080 Z" fill="#ffff64" opacity="0.44999999999999996"/><path d="M 0,1080 C 0,1080 0,900 0,900 C 77.59624890956675,898.7875968172566 155.1924978191335,897.5751936345132 216,896 C 276.8075021808665,894.4248063654868 320.82625763303287,892.4868222792037 398,887 C 475.17374236696713,881.5131777207963 585.5024716487351,872.4775172486717 658,870 C 730.4975283512649,867.5224827513283 765.1638557720266,871.6031087261096 821,886 C 876.8361442279734,900.3968912738904 953.8421052631581,925.1100478468901 1035,922 C 1116.1578947368419,918.8899521531099 1201.4677231753417,887.9566998863304 1281,883 C 1360.5322768246583,878.0433001136696 1434.2870020354756,899.0631526077877 1500,909 C 1565.7129979645244,918.9368473922123 1623.3842686827566,917.7906896825187 1698,918 C 1772.6157313172434,918.2093103174813 1864.1759232334982,919.7740886621376 1904,917 C 1943.8240767665018,914.2259113378624 1931.912038383251,907.1129556689311 1920,900 C 1920,900 1920,1080 1920,1080 Z" fill="#ffff64" opacity="0.49999999999999994"/><path d="M 0,1080 C 0,1080 0,990 0,990 C 94.73286367601577,980.5512173200455 189.46572735203154,971.102434640091 247,969 C 304.53427264796846,966.897565359909 324.86995426788974,972.1414787596816 389,974 C 453.13004573211026,975.8585212403184 561.0544555764095,974.3316503211822 641,975 C 720.9455444235905,975.6683496788178 772.9122234264718,978.5319199555897 847,973 C 921.0877765735282,967.4680800444103 1017.2966507177032,953.5406698564594 1087,961 C 1156.7033492822968,968.4593301435406 1199.901173702715,997.305400618573 1264,1014 C 1328.098826297285,1030.694599381427 1413.0986544714372,1035.2377276692487 1490,1018 C 1566.9013455285628,1000.7622723307514 1635.7042084115362,961.7436887044332 1710,957 C 1784.2957915884638,952.2563112955668 1864.0845118824182,981.787517513019 1900,993 C 1935.9154881175818,1004.212482486981 1927.957744058791,997.1062412434906 1920,990 C 1920,990 1920,1080 1920,1080 Z" fill="#ffff64" opacity="0.5499999999999999"/></svg>