<svg width="1920" height="1080" viewBox="0 0 1920 1080" xmlns="http://www.w3.org/2000/svg"><rect width="1920" height="1080" fill="#ffff64"/><path d="M 0,1080 C 0,1080 0,90 0,90 C 54.399111792540126,94.0383435988263 108.79822358508025,98.0766871976526 174,100 C 239.20177641491975,101.9233128023474 315.20621745221916,101.7315948082159 376,103 C 436.79378254778084,104.2684051917841 482.376906606043,106.99693356948373 555,97 C 627.623093393957,87.00306643051627 727.2861561236087,64.28067091384918 789,62 C 850.7138438763913,59.71932908615083 874.4784688995218,77.8803827751196 932,93 C 989.5215311004782,108.1196172248804 1080.799968278305,120.19779798567238 1147,116 C 1213.200031721695,111.80220201432762 1254.3216579872585,91.32842528219089 1312,85 C 1369.6783420127415,78.67157471780911 1443.913399772661,86.488500885564 1522,90 C 1600.086600227339,93.511499114436 1682.024742922097,92.71757117555315 1749,92 C 1815.975257077903,91.28242882444685 1867.9876285389514,90.64121441222343 1920,90 C 1920,90 1920,1080 1920,1080 Z" fill="#2a4d8f" opacity="0.049999999999999996"/><path d="M 0,1080 C 0,1080 0,180 0,180 C 75.96904491263317,192.9090644743451 151.93808982526633,205.81812894869017 207,212 C 262.06191017473367,218.18187105130983 296.2166856115678,217.63654867958445 351,212 C 405.7833143884322,206.36345132041555 481.19516772846225,195.63567633297205 561,186 C 640.8048322715377,176.36432366702795 725.0026434745831,167.8207459885273 782,170 C 838.9973565254169,172.1792540114727 868.7942583732056,185.08133971291866 928,188 C 987.2057416267944,190.91866028708134 1075.8203230325942,183.85389515979804 1159,178 C 1242.1796769674058,172.14610484020196 1319.924449496418,167.50307964788917 1379,173 C 1438.075550503582,178.49692035211083 1478.4818789817336,194.13378624864524 1543,201 C 1607.5181210182664,207.86621375135476 1696.1480345766474,205.96177535752992 1763,201 C 1829.8519654233526,196.03822464247008 1874.9259827116762,188.01911232123504 1920,180 C 1920,180 1920,1080 1920,1080 Z" fill="#2a4d8f" opacity="0.09999999999999999"/><path d="M 0,1080 C 0,1080 0,270 0,270 C 83.49035131777208,253.14762483808718 166.98070263554416,236.29524967617436 219,245 C 271.01929736445584,253.70475032382564 291.5675407755954,287.9666261333897 358,296 C 424.4324592244046,304.0333738666103 536.7491342620741,285.83824579026674 608,269 C 679.2508657379259,252.16175420973326 709.4359221761083,236.68039070554337 770,240 C 830.5640778238917,243.31960929445663 921.507177033493,265.4401913875598 995,272 C 1068.492822966507,278.5598086124402 1124.5353696899203,269.55884374421737 1168,268 C 1211.4646303100797,266.44115625578263 1242.3513442068256,272.32443363557064 1308,265 C 1373.6486557931744,257.67556636442936 1474.0592534827776,237.14342171350023 1546,244 C 1617.9407465172224,250.85657828649977 1661.4116418620636,285.1018795104285 1719,294 C 1776.5883581379364,302.8981204895715 1848.2941790689683,286.44906024478576 1920,270 C 1920,270 1920,1080 1920,1080 Z" fill="#2a4d8f" opacity="0.15"/><path d="M 0,1080 C 0,1080 0,360 0,360 C 74.1602870813397,363.4330936583045 148.3205741626794,366.86618731660894 205,375 C 261.6794258373206,383.13381268339106 300.8779904306221,395.96834439186864 367,389 C 433.1220095693779,382.03165560813136 526.1674641148326,355.2604351159164 592,346 C 657.8325358851674,336.7395648840836 696.4521531100479,344.9899151444659 750,348 C 803.5478468899521,351.0100848555341 872.0239234449759,348.7799043062201 945,344 C 1017.9760765550241,339.2200956937799 1095.452153110048,331.89046763065375 1154,340 C 1212.547846889952,348.10953236934625 1252.1674641148325,371.65822517116504 1309,382 C 1365.8325358851675,392.34177482883496 1439.8779904306218,389.4766316846863 1508,389 C 1576.1220095693782,388.5233683153137 1638.3205741626793,390.43524809008966 1706,386 C 1773.6794258373207,381.56475190991034 1846.8397129186603,370.78237595495517 1920,360 C 1920,360 1920,1080 1920,1080 Z" fill="#2a4d8f" opacity="0.19999999999999998"/><path d="M 0,1080 C 0,1080 0,450 0,450 C 70.12109757064685,431.5723783340823 140.2421951412937,413.14475666816463 194,419 C 247.7578048587063,424.85524333183537 285.15231700547196,454.9933516614238 348,469 C 410.84768299452804,483.0066483385762 499.14853683681827,480.88183668614016 568,477 C 636.8514631631817,473.11816331385984 686.2535356472548,467.4793015940153 737,463 C 787.7464643527452,458.5206984059847 839.8373205741627,455.200956937799 924,448 C 1008.1626794258373,440.799043062201 1124.3971820560946,429.71687065478864 1185,427 C 1245.6028179439054,424.28312934521136 1250.5739512014593,429.93156044304635 1309,444 C 1367.4260487985407,458.06843955695365 1479.3070131380684,480.5568875730261 1562,479 C 1644.6929868619316,477.4431124269739 1698.1979962462663,451.8408892648497 1753,443 C 1807.8020037537337,434.1591107351503 1863.9010018768668,442.07955536757515 1920,450 C 1920,450 1920,1080 1920,1080 Z" fill="#2a4d8f" opacity="0.24999999999999997"/><path d="M 0,1080 C 0,1080 0,540 0,540 C 81.74160035951255,525.3606492373576 163.4832007190251,510.7212984747151 223,520 C 282.5167992809749,529.2787015252849 319.8087974834122,562.4754553384969 383,567 C 446.1912025165878,571.5245446615031 535.2816093473261,547.3768801712971 606,534 C 676.7183906526739,520.6231198287029 729.0647651272832,518.0170239763145 788,521 C 846.9352348727168,523.9829760236855 912.4593301435407,532.555023923445 982,533 C 1051.5406698564593,533.444976076555 1125.0979142985539,525.7628803299056 1184,535 C 1242.9020857014461,544.2371196700944 1287.1490126622434,570.3934547569326 1345,569 C 1402.8509873377566,567.6065452430674 1474.306035052473,538.6633006423643 1531,530 C 1587.693964947527,521.3366993576357 1629.6268471278647,532.9533426736102 1692,538 C 1754.3731528721353,543.0466573263898 1837.1865764360678,541.5233286631949 1920,540 C 1920,540 1920,1080 1920,1080 Z" fill="#2a4d8f" opacity="0.3"/><path d="M 0,1080 C 0,1080 0,630 0,630 C 52.96511935287742,622.8348092733088 105.93023870575485,615.6696185466177 168,613 C 230.06976129424515,610.3303814533823 301.24416452985804,612.1563350868382 378,614 C 454.75583547014196,615.8436649131618 537.093103174813,617.7050411060297 593,624 C 648.906896825187,630.2949588939703 678.3834227708902,641.0235004890429 737,638 C 795.6165772291098,634.9764995109571 883.3732057416266,618.200956937799 961,623 C 1038.6267942583734,627.799043062201 1106.123754262603,654.1726717597611 1176,656 C 1245.876245737397,657.8273282402389 1318.131777207962,635.108356023157 1378,630 C 1437.868222792038,624.891643976843 1485.3491369055487,637.3939041476117 1534,632 C 1582.6508630944513,626.6060958523883 1632.4716751698431,603.3160273863966 1697,600 C 1761.5283248301569,596.6839726136034 1840.7641624150783,613.3419863068017 1920,630 C 1920,630 1920,1080 1920,1080 Z" fill="#2a4d8f" opacity="0.35"/><path d="M 0,1080 C 0,1080 0,720 0,720 C 43.29075576938328,731.6741256707817 86.58151153876656,743.3482513415632 158,753 C 229.41848846123344,762.6517486584368 328.96470961431703,770.2811203045283 402,752 C 475.03529038568297,733.7188796954717 521.5596500039652,689.5272674403236 574,687 C 626.4403499960348,684.4727325596764 684.7966903698222,723.6098099341775 744,730 C 803.2033096301778,736.3901900658225 863.2535885167464,710.0334928229665 928,711 C 992.7464114832536,711.9665071770335 1062.188955563192,740.2562187739564 1134,748 C 1205.811044436808,755.7437812260436 1279.9905892304848,742.9416320812076 1338,736 C 1396.0094107695152,729.0583679187924 1437.8486875148694,727.9772529012133 1500,731 C 1562.1513124851306,734.0227470987867 1644.6146607100372,741.149356313939 1718,740 C 1791.3853392899628,738.850643686061 1855.6926696449814,729.4253218430305 1920,720 C 1920,720 1920,1080 1920,1080 Z" fill="#2a4d8f" opacity="0.39999999999999997"/><path d="M 0,1080 C 0,1080 0,810 0,810 C 77.49561183219222,811.8874276348834 154.99122366438445,813.7748552697666 210,812 C 265.00877633561555,810.2251447302334 297.53071717465434,804.7880065558171 364,801 C 430.46928282534566,797.2119934441829 530.8859076369981,795.0731185069656 602,795 C 673.1140923630019,794.9268814930344 714.9256522773533,796.9195194163208 772,803 C 829.0743477226467,809.0804805836792 901.4114832535886,819.2488038277512 970,826 C 1038.5885167464114,832.7511961722488 1103.4284147082924,836.0852652726743 1158,826 C 1212.5715852917076,815.9147347273257 1256.8748579132414,792.4101350815512 1312,798 C 1367.1251420867586,803.5898649184488 1433.072153638743,838.2741944011208 1501,836 C 1568.927846361257,833.7258055988792 1638.8365275317876,794.4930873139656 1709,784 C 1779.1634724682124,773.5069126860344 1849.5817362341063,791.7534563430172 1920,810 C 1920,810 1920,1080 1920,1080 Z" fill="#2a4d8f" opacity="0.44999999999999996"/><path d="M 0,1080 C 0,1080 0,900 0,900 C 62.97109360543497,899.0282587432922 125.94218721086995,898.0565174865844 185,906 C 244.05781278913005,913.9434825134156 299.20234476195515,930.8021887969546 365,927 C 430.79765523804485,923.1978112030454 507.24843374130944,898.7347273255969 563,899 C 618.7515662586906,899.2652726744031 653.8039202728066,924.2589019006583 732,923 C 810.1960797271934,921.7410980993417 931.5358851674641,894.2296650717702 995,891 C 1058.4641148325359,887.7703349282298 1064.052539057337,908.8224378122603 1122,910 C 1179.947460942663,911.1775621877397 1290.253958603188,892.4805836791879 1368,890 C 1445.746041396812,887.5194163208121 1490.931626529911,901.2552274709878 1550,901 C 1609.068373470089,900.7447725290122 1682.0195352771682,886.4985064368606 1746,884 C 1809.9804647228318,881.5014935631394 1864.990232361416,890.7507467815697 1920,900 C 1920,900 1920,1080 1920,1080 Z" fill="#2a4d8f" opacity="0.49999999999999994"/><path d="M 0,1080 C 0,1080 0,990 0,990 C 83.2581485104021,973.1237674799756 166.5162970208042,956.2475349599514 226,967 C 285.4837029791958,977.7524650400486 321.1929604271854,1016.1336276401703 380,1015 C 438.8070395728146,1013.8663723598297 520.7118612704538,973.2179544793676 584,965 C 647.2881387295462,956.7820455206324 691.9595944909989,980.9945544423591 747,982 C 802.0404055090011,983.0054455576409 867.4497607655502,960.8038277511963 927,964 C 986.5502392344498,967.1961722488037 1040.2413624468,995.7901345528563 1116,1004 C 1191.7586375532,1012.2098654471437 1289.5847894472497,1000.0356340373787 1361,990 C 1432.4152105527503,979.9643659626213 1477.4194797642022,972.0673292976289 1533,970 C 1588.5805202357978,967.9326707023711 1654.7372914959424,971.695048772106 1721,976 C 1787.2627085040576,980.304951227894 1853.6313542520288,985.152475613947 1920,990 C 1920,990 1920,1080 1920,1080 Z" fill="#2a4d8f" opacity="0.5499999999999999"/></svg>